<?xml version="1.0" standalone="no"?>
<!DOCTYPE svg PUBLIC "-//W3C//DTD SVG 20010904//EN"
 "http://www.w3.org/TR/2001/REC-SVG-20010904/DTD/svg10.dtd">
<svg version="1.0" xmlns="http://www.w3.org/2000/svg"
 width="1500.000000pt" height="1500.000000pt" viewBox="0 0 1500.000000 1500.000000"
 preserveAspectRatio="xMidYMid meet">

<g transform="translate(0.000000,1500.000000) scale(0.100000,-0.100000)"
fill="#000000" stroke="none">
<path d="M0 7500 l0 -7500 7500 0 7500 0 0 7500 0 7500 -7500 0 -7500 0 0
-7500z m7005 3930 c119 -26 252 -74 332 -121 85 -50 204 -171 242 -248 34 -66
61 -169 61 -234 l0 -37 -317 2 -317 3 -6 30 c-14 66 -69 133 -138 169 -100 52
-331 65 -473 28 -170 -45 -287 -136 -351 -272 -46 -97 -62 -166 -61 -265 1
-100 28 -175 85 -240 53 -60 98 -88 195 -122 71 -25 91 -27 223 -27 132 0 152
2 223 27 42 15 94 38 115 51 54 34 111 101 138 162 l24 54 326 0 327 0 -7 -71
c-29 -312 -277 -576 -656 -697 -208 -66 -372 -87 -639 -79 -264 8 -413 40
-596 128 -307 148 -464 434 -425 772 59 510 432 883 988 986 154 29 156 29
392 26 173 -3 234 -8 315 -25z m-2925 -107 c-27 -65 -84 -203 -128 -308 -43
-104 -78 -191 -77 -193 1 -1 230 137 508 308 l505 310 363 -2 363 -3 -462
-295 c-254 -162 -462 -299 -462 -304 0 -7 241 -595 507 -1233 l13 -33 -412 0
-413 0 -148 444 -148 445 -127 -81 c-70 -44 -176 -112 -237 -151 -60 -38 -117
-77 -126 -86 -9 -9 -67 -141 -130 -293 l-114 -278 -354 0 c-332 0 -353 1 -347
18 4 9 204 430 444 934 l437 918 297 0 297 0 -49 -117z m5302 89 c189 -46 325
-119 430 -230 105 -113 154 -240 146 -383 -10 -164 -117 -290 -293 -345 l-40
-12 28 -11 c44 -17 134 -78 184 -124 25 -23 116 -134 201 -247 86 -113 205
-269 264 -347 l109 -143 -385 0 -385 0 -211 309 c-121 177 -226 321 -245 336
-72 54 -98 58 -393 63 l-273 4 6 -59 c5 -50 45 -622 45 -645 0 -4 -159 -8
-353 -8 l-354 0 -6 647 c-4 355 -7 776 -7 935 l0 289 723 -4 c696 -3 725 -4
809 -25z m2330 -4 c305 -83 531 -270 658 -542 57 -121 73 -193 68 -311 -3 -83
-8 -108 -30 -150 -50 -95 -143 -164 -274 -201 -51 -15 -123 -18 -511 -22 -249
-2 -453 -6 -453 -9 0 -3 43 -136 95 -295 52 -159 95 -294 95 -299 0 -5 -148
-9 -353 -9 l-352 0 -214 813 c-118 446 -229 867 -247 935 l-32 123 726 -3 727
-4 97 -26z m-4002 -1952 c0 -37 16 -74 93 -218 l93 -173 360 -3 360 -2 23 70
22 71 39 -31 c21 -16 41 -30 46 -30 4 0 15 -7 24 -15 14 -13 20 -12 53 11 20
13 37 29 37 34 0 6 23 -6 50 -25 59 -42 65 -40 146 35 28 27 73 60 101 74 54
27 93 67 93 95 0 19 117 81 153 81 17 0 48 -38 147 -183 l125 -182 881 -3 881
-2 -4 22 c-2 13 16 62 40 112 l43 90 56 -135 c91 -216 121 -310 109 -336 -16
-34 -28 -28 -36 17 -8 45 -11 47 -38 23 -19 -18 -20 -17 -8 5 17 31 7 39 -16
13 -24 -29 -30 -27 -35 14 -2 19 0 35 4 35 4 0 8 10 8 22 0 20 -1 20 -18 5
-10 -10 -22 -14 -26 -10 -4 5 -14 -1 -23 -12 -13 -19 -14 -17 -8 18 6 30 4 37
-9 37 -11 0 -16 -10 -17 -32 l-1 -33 -11 32 c-16 43 -30 45 -38 8 -6 -27 -7
-25 -9 15 -1 33 -3 40 -9 25 -5 -11 -6 -38 -4 -60 4 -30 2 -36 -6 -25 -6 8
-11 36 -11 63 0 35 -4 47 -15 47 -8 0 -12 -6 -9 -14 3 -8 1 -17 -5 -21 -7 -3
-11 2 -11 14 0 38 -20 22 -21 -16 -2 -31 -3 -33 -6 -10 -2 15 -8 27 -13 27 -5
0 -16 3 -26 7 -15 6 -16 1 -11 -38 l5 -44 -21 37 c-12 21 -26 38 -31 38 -11 0
2 -82 15 -94 5 -6 9 -17 9 -25 0 -9 -16 8 -35 37 -34 49 -55 65 -55 41 0 -6
14 -36 31 -66 17 -30 29 -56 27 -58 -2 -2 -19 16 -38 40 -19 24 -41 44 -47 45
-7 0 -13 -2 -13 -4 0 -9 52 -96 61 -101 5 -4 9 -11 9 -17 0 -5 -22 13 -49 41
-27 28 -52 51 -55 51 -17 0 -2 -32 35 -74 36 -40 38 -46 20 -46 -12 0 -21 -6
-21 -15 0 -24 -28 -18 -32 7 -4 25 -28 37 -28 14 0 -9 -8 -16 -20 -16 -11 0
-20 -7 -20 -16 0 -8 -5 -12 -10 -9 -6 4 -18 4 -26 1 -13 -5 -12 -10 6 -36 12
-16 17 -30 11 -30 -5 0 -12 9 -16 20 -3 10 -20 28 -38 39 -18 11 -43 34 -55
51 -39 53 -112 88 -112 55 0 -8 4 -15 9 -15 5 0 21 -16 36 -35 l27 -36 -26 7
c-27 6 -34 -4 -15 -23 7 -7 3 -9 -15 -6 -14 3 -28 13 -31 22 -6 19 -63 56 -73
46 -10 -10 12 -38 45 -54 30 -16 59 -48 50 -57 -3 -3 -22 6 -42 21 -32 21 -85
34 -85 21 0 -3 25 -21 55 -42 31 -20 54 -39 51 -41 -3 -3 -15 2 -28 11 -24 17
-58 21 -58 7 0 -5 10 -16 23 -25 22 -16 21 -17 -18 -11 -22 3 -48 8 -57 11
-11 3 -18 0 -18 -8 0 -7 26 -24 58 -37 53 -23 100 -52 60 -38 -40 14 -118 19
-118 8 0 -13 23 -19 120 -30 l75 -8 -107 -2 c-87 -1 -108 -4 -108 -15 0 -23
19 -30 84 -28 43 1 56 -1 46 -8 -8 -5 -41 -10 -72 -10 -43 0 -58 -4 -58 -14 0
-10 22 -16 78 -21 l77 -8 -62 -15 c-35 -8 -63 -19 -63 -25 0 -9 49 -6 150 9
28 4 19 -2 -40 -30 -41 -20 -79 -37 -85 -39 -5 -3 -7 -7 -4 -11 8 -8 125 12
152 26 23 11 38 1 17 -12 -12 -8 -12 -10 2 -15 14 -6 13 -12 -9 -51 -30 -53
-21 -56 27 -9 l36 35 -2 -43 c-2 -55 -19 -87 -45 -87 -11 0 -32 -6 -47 -14
-15 -8 -65 -19 -112 -25 -147 -19 -260 -38 -267 -45 -3 -3 24 -6 60 -6 37 0
67 -4 67 -9 0 -5 -29 -19 -65 -32 -36 -12 -65 -29 -65 -36 0 -16 1 -16 49 3
22 9 46 14 53 12 12 -4 0 -17 -57 -63 -20 -16 -19 -16 5 -10 14 4 38 6 54 6
16 -1 39 7 50 17 29 25 155 102 168 102 6 0 3 -10 -6 -22 -9 -13 -19 -30 -23
-38 -3 -8 -15 -27 -25 -42 -20 -29 -17 -48 8 -48 27 0 14 -18 -28 -39 -39 -19
-41 -22 -20 -27 21 -6 21 -7 5 -20 -17 -13 -17 -14 0 -25 10 -6 14 -15 10 -22
-14 -23 -13 -77 2 -77 8 0 17 5 20 10 7 11 45 14 45 3 0 -4 -12 -19 -26 -34
-14 -15 -25 -32 -23 -38 5 -14 69 29 69 47 0 6 9 12 20 12 18 0 19 -3 9 -21
-11 -21 -10 -22 20 -16 18 4 31 2 31 -3 0 -6 9 -10 21 -10 16 0 19 4 14 20 -7
23 -2 25 24 8 21 -13 56 -4 46 12 -3 5 -17 10 -30 10 -22 0 -24 2 -14 24 6 13
22 30 35 37 14 7 23 18 21 23 -3 6 6 19 19 29 23 17 24 17 30 -9 5 -17 2 -29
-7 -35 -11 -7 -12 -12 -1 -29 8 -14 9 -20 1 -20 -7 0 -9 -9 -6 -21 5 -17 2
-20 -14 -16 -16 4 -19 1 -17 -16 2 -14 -2 -22 -12 -23 -8 0 -42 -4 -75 -9 -33
-5 -72 -9 -87 -9 -57 -2 -30 -21 40 -30 80 -10 94 -27 38 -46 -19 -6 -52 -20
-73 -30 -35 -18 -36 -20 -15 -26 21 -6 31 -24 14 -24 -5 0 -17 -7 -28 -16 -17
-14 -12 -15 71 -10 l90 6 -72 -26 c-40 -14 -73 -30 -73 -35 0 -12 17 -11 43 3
30 16 97 27 97 17 0 -5 -17 -17 -37 -26 -46 -23 -53 -40 -16 -45 l28 -4 -47
-47 c-27 -25 -48 -49 -48 -52 0 -14 25 -1 69 34 31 24 65 41 91 45 27 4 49 16
65 34 36 42 41 19 6 -33 -17 -25 -31 -48 -31 -51 0 -3 -14 -25 -30 -49 -37
-54 -22 -70 17 -19 62 80 72 90 82 75 5 -8 3 -33 -5 -65 -8 -28 -13 -69 -13
-91 l1 -40 14 50 c8 28 19 66 24 85 5 20 17 44 25 55 16 19 16 19 11 -5 -3
-14 -8 -45 -11 -70 l-6 -45 23 40 c20 36 23 38 26 17 7 -44 27 -15 44 64 l17
79 -5 -107 c-2 -60 -2 -108 1 -108 3 0 10 11 15 25 5 14 17 25 26 25 22 0 11
-42 -27 -99 -16 -25 -29 -48 -29 -53 0 -4 -21 -8 -47 -8 l-48 -1 -35 -72 c-32
-68 -78 -134 -125 -183 -11 -12 -31 -34 -44 -48 -38 -42 -127 -116 -139 -116
-8 0 -11 25 -10 75 0 41 -2 78 -5 81 -3 4 -88 3 -189 -1 l-182 -7 54 -18 c30
-9 82 -34 114 -54 33 -20 67 -36 75 -36 23 -1 54 -27 47 -39 -4 -6 -50 5 -119
28 -61 21 -148 46 -192 56 -72 16 -84 22 -120 61 -31 33 -48 44 -70 44 -52 0
-60 -13 -30 -48 30 -35 20 -48 -21 -27 -36 19 -53 19 -97 0 -20 -8 -47 -15
-61 -15 -13 0 -37 -11 -53 -24 -19 -16 -52 -29 -93 -36 -89 -15 -180 -60 -234
-113 -36 -36 -49 -60 -66 -119 -12 -40 -25 -77 -30 -81 -14 -15 -20 40 -10 92
13 70 43 125 97 177 l45 44 -27 10 c-28 11 -46 5 -95 -32 -23 -17 -36 -18
-130 -10 -100 8 -192 2 -160 -11 8 -3 49 -13 90 -22 85 -20 120 -38 120 -63 0
-41 -106 -412 -118 -412 -27 0 -36 47 -19 103 26 81 57 220 57 250 0 15 -9 36
-20 47 -18 18 -33 20 -132 20 -133 0 -535 -33 -663 -55 -111 -18 -126 -19
-105 -4 11 8 -11 9 -80 5 -163 -10 -212 -16 -298 -36 -66 -16 -92 -18 -130
-10 -40 9 -61 7 -142 -15 -52 -15 -130 -31 -173 -37 -83 -12 -96 -8 -97 34 0
30 28 45 139 74 61 16 111 32 111 35 0 4 -11 10 -25 13 -39 10 -376 -86 -539
-154 -85 -35 -99 -38 -123 -28 -16 7 -30 15 -33 19 -3 3 -18 9 -33 13 -33 8
-78 -18 -201 -113 -80 -62 -246 -212 -246 -223 0 -5 26 -8 58 -8 80 0 460 -44
470 -55 3 -2 -1 -12 -9 -21 -11 -13 -24 -15 -79 -9 -36 4 -189 11 -340 14
l-275 6 40 44 c48 53 371 306 505 396 231 155 431 217 823 256 78 8 117 15
114 23 -2 6 -23 13 -48 14 -46 4 -229 -14 -289 -28 -88 -20 -95 -21 -85 -11
11 11 202 61 233 61 29 0 36 39 9 51 -12 5 -38 19 -57 32 -34 23 -37 23 -120
11 -47 -7 -102 -13 -122 -14 l-38 0 -1 48 c-1 42 -2 44 -8 14 l-6 -33 -37 37
c-21 20 -38 40 -38 45 0 4 -13 27 -29 51 -30 45 -61 151 -61 206 0 22 -5 32
-15 32 -19 0 -21 60 -3 78 8 8 8 12 1 12 -15 0 -8 85 10 110 14 20 15 20 20 1
3 -13 -1 -22 -12 -26 -15 -6 -14 -8 2 -19 9 -7 17 -21 17 -30 0 -10 5 -14 10
-11 6 3 10 16 10 27 0 12 11 36 24 53 14 18 26 43 28 56 5 37 17 49 43 47 27
-3 32 -17 13 -37 -11 -11 -10 -12 1 -6 7 4 16 2 21 -5 10 -17 23 93 15 131 -4
16 -3 29 2 27 4 -1 24 8 43 20 19 12 28 22 20 22 -8 0 -37 12 -65 25 -27 14
-59 25 -70 25 -19 0 -20 6 -17 185 3 172 2 185 -15 185 -17 0 -18 13 -14 205
3 201 -3 269 -19 215 -4 -14 -5 -55 -3 -91 7 -79 6 -80 -101 -72 l-76 6 0 99
0 100 -42 -6 c-24 -3 -56 -8 -73 -9 -78 -9 -74 1 -77 -185 -3 -162 -4 -167
-25 -177 -16 -7 -23 -18 -23 -37 0 -16 -4 -28 -10 -28 -6 0 -10 -32 -10 -76 0
-75 0 -76 -22 -69 -13 4 -50 11 -83 15 -33 4 -51 8 -40 9 37 5 -25 19 -90 20
-43 1 -56 4 -45 11 11 7 2 10 -32 10 -55 0 -52 7 -49 -125 6 -237 81 -463 224
-671 67 -98 69 -115 60 -449 l-6 -243 -61 -45 c-34 -25 -99 -82 -146 -126 -47
-44 -92 -81 -101 -81 -15 0 -22 132 -33 638 -1 35 -6 56 -16 62 -10 7 -11 10
-2 10 8 0 12 16 12 45 l0 45 -54 0 c-30 0 -57 4 -60 9 -4 5 19 7 53 4 l60 -6
-1 52 c0 36 -4 51 -13 51 -8 0 -15 12 -17 28 l-3 27 -167 3 -167 2 -28 -42
-28 -43 -3 -616 -3 -617 -35 -7 c-20 -3 -39 -3 -43 0 -3 4 -9 374 -12 823 -6
810 -14 1072 -30 1072 -5 0 -9 20 -9 44 0 25 -5 48 -11 52 -19 11 -472 4 -486
-8 -7 -6 -13 -28 -13 -50 0 -31 -4 -41 -20 -45 -20 -5 -20 -14 -20 -827 0
-451 -3 -892 -7 -978 l-6 -157 -46 -6 c-25 -4 -58 -9 -73 -11 l-28 -6 0 85 c0
47 -3 92 -6 101 -3 8 -22 18 -42 21 -21 4 -47 8 -59 11 l-22 4 -3 628 -3 627
-24 43 c-41 74 -29 72 -373 72 l-308 0 0 -559 c0 -603 3 -571 -50 -571 -26 0
-30 -19 -30 -140 0 -123 -10 -146 -58 -133 -58 16 -146 6 -234 -25 l-87 -30
-7 36 c-4 19 -4 99 0 176 6 128 20 843 19 976 0 30 7 152 15 270 15 208 17
216 44 254 15 21 28 49 28 62 0 38 19 38 52 0 25 -29 34 -33 49 -25 16 8 19
22 19 100 0 50 4 88 9 85 4 -3 16 -33 25 -67 16 -57 19 -60 35 -45 10 9 24 16
31 16 10 0 12 17 6 77 -3 42 -10 81 -16 87 -6 6 -5 14 2 24 7 7 11 31 10 53
-2 33 0 39 17 39 11 0 23 5 26 10 9 15 35 -7 35 -30 0 -20 23 -43 34 -33 3 4
13 -2 22 -13 15 -18 15 -18 11 4 -7 29 1 28 35 -5 31 -30 35 -20 13 34 -11 26
-13 45 -6 68 13 47 2 86 -30 115 -26 23 -34 49 -30 99 1 12 4 12 13 3 7 -7 31
-12 55 -12 42 0 42 1 37 29 -4 16 -1 32 5 35 15 10 14 41 -3 55 -16 13 -10 55
11 73 11 9 27 9 75 -1 74 -15 244 -20 970 -25 528 -5 567 -4 572 12 3 9 14 50
26 90 l21 72 44 0 c25 0 45 5 45 10 0 6 22 10 48 10 46 0 49 2 66 38 10 20 34
63 53 95 26 44 40 57 58 57 28 0 46 18 112 110 l48 69 104 1 c291 1 605 91
816 233 72 49 173 144 211 198 l27 39 73 0 74 0 0 -44z m3820 -588 c0 -5 -4
-8 -10 -8 -5 0 -10 10 -10 23 0 18 2 19 10 7 5 -8 10 -18 10 -22z m239 -290
c1 -5 -3 -8 -9 -8 -5 0 -10 11 -10 24 0 14 -5 28 -10 31 -6 4 -7 11 -3 18 5 9
30 -39 32 -65z m-7486 36 c-8 -21 -23 -17 -23 6 0 13 5 18 14 14 8 -3 12 -12
9 -20z m6454 0 c-3 -3 -12 -4 -19 -1 -8 3 -5 6 6 6 11 1 17 -2 13 -5z m-7207
-113 c0 -11 -4 -23 -10 -26 -6 -4 -10 5 -10 19 0 14 5 26 10 26 6 0 10 -9 10
-19z m693 4 c4 -8 2 -17 -3 -20 -6 -4 -10 3 -10 14 0 25 6 27 13 6z m7037 -70
c-7 -8 -19 -15 -28 -15 -12 0 -10 6 9 26 24 26 41 16 19 -11z m-70 -10 c0 -16
-6 -25 -15 -25 -15 0 -21 31 -8 43 13 14 23 6 23 -18z m-112 -44 c3 -8 -1 -12
-9 -9 -7 2 -15 10 -17 17 -3 8 1 12 9 9 7 -2 15 -10 17 -17z m212 -1 c8 -5 11
-12 8 -16 -10 -9 -38 3 -38 16 0 12 10 13 30 0z m-53 -52 c-3 -8 -6 -5 -6 6
-1 11 2 17 5 13 3 -3 4 -12 1 -19z m-7115 -13 c-2 -14 -6 -25 -8 -25 -2 0 -4
11 -4 25 0 14 4 25 9 25 4 0 6 -11 3 -25z m102 16 c3 -5 0 -11 -8 -14 -8 -3
-17 1 -20 9 -6 15 19 20 28 5z m6802 -37 c-12 -30 -25 -13 -13 19 8 23 12 27
15 14 2 -10 1 -25 -2 -33z m-130 -48 c-14 -35 -36 -49 -36 -24 0 16 44 80 48
69 2 -5 -4 -25 -12 -45z m584 23 c0 -5 -4 -9 -10 -9 -5 0 -10 7 -10 16 0 8 5
12 10 9 6 -3 10 -10 10 -16z m358 -12 c2 -12 -1 -15 -12 -11 -19 7 -22 38 -3
32 6 -3 13 -12 15 -21z m-898 -20 c0 -7 -9 -20 -20 -30 -19 -16 -20 -16 -20 1
0 19 18 42 32 42 4 0 8 -6 8 -13z m900 -52 c0 -8 -2 -15 -4 -15 -2 0 -6 7 -10
15 -3 8 -1 15 4 15 6 0 10 -7 10 -15z m-4752 -31 c34 -10 26 -21 -20 -27 -48
-6 -53 -4 -45 18 7 16 27 19 65 9z m4542 -8 c0 -8 5 -16 12 -18 8 -3 6 -13 -5
-34 -9 -16 -22 -39 -28 -52 -9 -16 -9 -26 -3 -30 6 -4 11 -24 11 -45 1 -21 4
-41 7 -44 10 -11 56 27 56 47 0 17 2 17 25 -6 30 -30 32 -44 5 -44 -11 0 -20
-5 -20 -11 0 -7 9 -9 21 -6 13 3 19 1 16 -6 -2 -7 -24 -13 -48 -15 -41 -3 -48
1 -91 43 -44 43 -54 75 -24 75 6 0 3 5 -6 11 -23 13 -23 60 -1 102 16 30 18
31 21 9 2 -13 -2 -29 -8 -37 -7 -9 -8 -15 0 -20 11 -7 32 38 32 73 0 12 7 22
14 22 8 0 14 -6 14 -14z m-724 -32 c-4 -12 -2 -15 9 -10 29 11 15 -22 -17 -42
-33 -20 -124 -29 -113 -11 4 5 12 9 19 9 7 0 19 12 27 26 20 38 88 63 75 28z
m387 -29 c-4 -28 -1 -39 13 -50 18 -14 18 -14 -3 -15 -12 0 -25 -4 -28 -10 -3
-5 -21 -10 -40 -10 -62 0 -85 -15 -85 -55 0 -24 -5 -35 -15 -35 -8 0 -18 0
-22 0 -3 0 -7 10 -8 22 -1 13 -5 30 -9 39 -5 12 1 19 21 28 16 6 42 23 57 36
16 14 33 25 38 25 4 0 8 11 8 25 0 16 6 25 15 25 8 0 15 -7 15 -15 0 -22 18
-18 25 5 11 34 24 22 18 -15z m-139 1 c31 -28 32 -36 8 -36 -10 0 -36 -9 -57
-19 -51 -25 -65 -18 -65 30 0 42 9 48 34 24 13 -14 16 -13 26 5 14 26 23 25
54 -4z m-4046 -8 c3 -15 -4 -18 -42 -18 -40 0 -46 3 -46 21 0 18 5 20 42 17
31 -2 44 -8 46 -20z m3662 -18 c-35 -44 -48 -48 -28 -9 23 42 29 49 44 49 11
0 7 -12 -16 -40z m240 13 c-1 -27 -1 -27 -15 -9 -14 19 -12 36 6 36 5 0 9 -12
9 -27z m780 6 c0 -6 -5 -19 -11 -31 -13 -24 -5 -35 15 -19 8 6 18 11 22 10 23
-4 35 3 44 24 8 18 9 15 7 -18 l-2 -40 -55 0 c-60 0 -69 10 -51 58 10 26 31
37 31 16z m-295 -67 c-8 -8 -25 10 -19 20 4 6 9 5 15 -3 4 -7 6 -15 4 -17z
m168 -17 c-9 -19 -21 -35 -26 -35 -5 0 -7 3 -5 8 24 48 32 62 39 62 5 0 1 -16
-8 -35z m-4563 15 c0 -5 -13 -10 -30 -10 -16 0 -30 5 -30 10 0 6 14 10 30 10
17 0 30 -4 30 -10z m62 -35 c-8 -29 -9 -29 -15 -6 -7 27 2 56 14 44 5 -5 5
-22 1 -38z m3588 15 c0 -5 -6 -10 -14 -10 -8 0 -18 5 -21 10 -3 6 3 10 14 10
12 0 21 -4 21 -10z m53 3 c-7 -2 -21 -2 -30 0 -10 3 -4 5 12 5 17 0 24 -2 18
-5z m717 -24 c0 -11 -4 -17 -10 -14 -5 3 -10 15 -10 26 0 11 5 17 10 14 6 -3
10 -15 10 -26z m-4413 -131 c0 -79 -3 -115 -9 -104 -5 9 -15 16 -22 16 -9 0
-13 27 -15 100 -1 55 0 104 3 109 3 5 14 7 24 4 17 -4 19 -17 19 -125z m4093
122 c0 -5 -7 -10 -16 -10 -8 0 -12 5 -9 10 3 6 10 10 16 10 5 0 9 -4 9 -10z
m-4030 -44 c0 -16 -18 -31 -27 -22 -8 8 5 36 17 36 5 0 10 -6 10 -14z m3930
-59 c0 -14 4 -16 19 -7 23 12 41 13 41 2 0 -4 -17 -13 -37 -19 -34 -11 -40
-10 -55 8 -24 29 -23 37 7 35 17 -1 25 -7 25 -19z m-3932 -74 c1 -46 -6 -73
-19 -73 -5 0 -9 25 -9 55 0 40 4 55 14 55 9 0 14 -12 14 -37z m3897 7 c9 -16
12 -30 7 -30 -8 0 -32 42 -32 55 0 13 11 2 25 -25z m-7662 -12 c8 -18 17 -59
21 -92 9 -81 22 -102 31 -51 9 56 13 65 14 32 1 -16 5 -26 11 -22 6 4 10 -14
10 -46 0 -29 3 -49 7 -46 3 4 12 2 19 -4 13 -11 14 -10 40 39 l14 27 0 -27 c0
-56 19 -35 26 28 5 50 9 63 16 50 14 -25 11 -174 -6 -321 -3 -27 -6 -257 -7
-510 -1 -358 -5 -475 -16 -530 -8 -38 -12 -88 -9 -110 l5 -40 -14 35 c-7 19
-14 58 -14 87 -1 28 -5 55 -11 58 -5 3 -10 33 -10 66 0 32 -4 59 -8 59 -29 0
-43 34 -71 171 -66 320 -99 702 -86 1007 4 94 11 172 16 172 5 0 15 -15 22
-32z m8427 -64 c0 -17 -5 -17 -31 -3 -16 8 -18 13 -8 25 13 16 39 2 39 -22z
m27 -49 c-5 -33 -5 -34 24 -28 27 5 29 4 29 -26 0 -26 -3 -31 -17 -27 -10 3
-35 8 -55 12 -44 7 -48 24 -13 52 14 11 25 27 25 36 0 9 3 16 6 16 4 0 4 -16
1 -35z m-4647 -34 c0 -21 6 -32 20 -36 16 -5 18 -12 13 -38 -7 -38 -3 -33 -30
-41 -19 -6 -25 -2 -33 19 -5 14 -10 34 -9 43 1 9 6 2 12 -16 11 -35 24 -37 41
-8 9 13 7 20 -6 30 -10 7 -18 25 -18 40 0 24 -3 26 -22 21 -18 -5 -20 -4 -8 4
26 19 40 12 40 -18z m4107 -8 c-3 -10 -5 -4 -5 12 0 17 2 24 5 18 2 -7 2 -21
0 -30z m53 6 c0 -11 -4 -17 -10 -14 -5 3 -10 13 -10 21 0 8 5 14 10 14 6 0 10
-9 10 -21z m-100 -84 c5 -20 0 -27 -13 -17 -8 7 -11 25 -8 49 l4 38 7 -30 c4
-16 8 -34 10 -40z m640 -1 c0 -10 -7 -14 -22 -12 -32 5 -35 28 -4 28 17 0 26
-5 26 -16z m-1112 -55 c14 0 13 -2 -3 -9 -31 -13 -45 -11 -45 6 0 11 5 14 16
10 9 -3 23 -6 32 -7z m-3684 -54 c-4 -8 -8 -15 -10 -15 -2 0 -4 7 -4 15 0 8 4
15 10 15 5 0 7 -7 4 -15z m-2284 -126 c0 -12 -27 -11 -35 1 -11 17 5 32 21 19
8 -6 14 -15 14 -20z m6280 -44 c0 -14 -4 -25 -9 -25 -4 0 -6 11 -3 25 2 14 6
25 8 25 2 0 4 -11 4 -25z m787 -27 c-3 -7 -5 -2 -5 12 0 14 2 19 5 13 2 -7 2
-19 0 -25z m-113 -31 c4 -23 8 -67 11 -98 5 -61 18 -103 34 -114 15 -9 14 29
-2 68 -7 18 -14 59 -15 92 -2 55 -1 58 13 41 8 -11 15 -25 15 -32 0 -6 7 -17
15 -24 19 -16 19 -3 -1 56 -16 48 -12 76 5 31 5 -14 15 -28 20 -32 6 -3 11
-27 11 -53 0 -34 -3 -43 -10 -32 -8 12 -10 11 -10 -5 0 -12 4 -25 10 -31 11
-11 -10 -183 -46 -378 -19 -99 -29 -134 -36 -122 -6 10 -22 16 -47 16 l-39 0
-11 63 c-27 151 -40 272 -28 279 8 5 8 10 -1 20 -13 16 13 276 30 293 6 7 9
-2 8 -25 -1 -19 -1 -82 0 -140 3 -134 17 -97 20 50 2 85 4 97 11 65 4 -22 8
-76 9 -120 1 -44 5 -98 10 -120 6 -27 8 17 5 133 -3 109 -2 171 4 167 6 -3 12
-24 15 -48z m-5604 -17 c18 -6 9 -8 -35 -8 -44 0 -53 2 -35 8 14 4 30 8 35 8
6 0 21 -4 35 -8z m-1345 -30 c-3 -5 -12 -7 -20 -3 -21 7 -19 13 6 13 11 0 18
-4 14 -10z m6816 -87 c-9 -16 -10 -15 -11 7 0 14 4 36 8 50 7 24 7 24 10 -7 2
-18 -1 -41 -7 -50z m-6815 32 c-8 -21 -50 -16 -54 7 -2 11 5 18 20 20 29 5 43
-6 34 -27z m1404 21 c0 -9 -39 -13 -51 -5 -10 6 -4 9 19 9 17 0 32 -2 32 -4z
m-1405 -76 c0 -19 -35 -26 -46 -9 -4 7 -5 17 -2 22 8 14 48 3 48 -13z m-5 -60
c0 -5 -9 -10 -20 -10 -11 0 -20 5 -20 10 0 6 9 10 20 10 11 0 20 -4 20 -10z
m-5 -95 c0 -28 -29 -25 -33 3 -3 19 0 23 15 20 10 -2 18 -12 18 -23z m5 -70
c0 -8 -9 -15 -20 -15 -20 0 -26 11 -13 23 12 13 33 7 33 -8z m1284 -31 c3 -8
2 -12 -4 -9 -6 3 -10 10 -10 16 0 14 7 11 14 -7z m-1290 -20 c25 -9 19 -24 -9
-24 -16 0 -25 6 -25 15 0 16 9 19 34 9z m-10 -50 c12 -5 16 -21 16 -66 0 -55
-1 -58 -17 -43 -15 15 -33 115 -20 115 3 0 12 -3 21 -6z m5316 -140 c107 -17
270 -64 270 -77 0 -10 -2 -10 -140 29 -88 26 -109 28 -295 28 -230 1 -282 -9
-353 -70 -75 -64 -89 -101 -201 -549 -77 -305 -83 -351 -50 -381 31 -28 108
-23 634 35 248 28 558 60 690 71 310 27 417 40 433 52 20 17 14 59 -18 126
-17 35 -30 66 -30 70 0 12 82 -110 96 -144 30 -71 4 -87 -166 -98 -130 -9
-1029 -100 -1335 -135 -211 -24 -255 -27 -281 -16 -40 17 -74 60 -74 97 0 15
41 191 91 390 100 400 122 458 197 515 101 76 295 97 532 57z m-3190 -38 c0
-3 -54 -37 -121 -78 -114 -69 -337 -234 -404 -299 -50 -47 -53 -33 -5 17 116
118 312 262 445 325 87 42 85 41 85 35z m3112 -43 c71 -81 219 -534 254 -776
6 -44 5 -49 -12 -45 -12 2 -21 16 -25 38 -67 324 -113 475 -207 673 -50 106
-58 127 -43 127 10 0 25 -8 33 -17z m-93 -17 c19 -14 72 -127 65 -138 -3 -4
-21 -8 -41 -8 -56 0 -227 -38 -315 -70 -45 -17 -83 -28 -86 -25 -7 7 28 108
56 159 35 65 74 84 188 94 92 8 109 7 133 -12z m211 -36 c60 -119 148 -376
184 -537 41 -181 45 -226 19 -221 -12 2 -22 31 -39 120 -41 214 -106 412 -198
610 -20 42 -36 79 -36 82 0 3 9 6 20 6 14 0 28 -17 50 -60z m350 19 c53 -27
12 -22 -45 6 -37 18 -42 23 -20 18 17 -3 46 -14 65 -24z m-220 5 c3 -3 -8 -17
-24 -31 l-29 -24 -18 28 c-11 15 -19 32 -19 37 0 9 80 0 90 -10z m-5503 -241
c-2 -38 -3 -7 -3 67 0 74 1 105 3 68 2 -38 2 -98 0 -135z m5686 152 c3 -13
-179 -49 -201 -40 -22 9 -14 12 92 35 89 19 106 20 109 5z m-423 -87 c0 -4
-19 -12 -42 -18 -89 -23 -207 -61 -313 -100 -134 -49 -127 -47 -132 -34 -4 13
217 100 354 139 48 14 93 32 98 40 9 13 12 13 23 -2 6 -9 12 -20 12 -25z m31
-109 c-3 -3 -55 -18 -116 -33 -60 -15 -156 -40 -213 -57 -56 -16 -115 -29
-130 -28 l-27 1 33 14 c48 21 288 92 352 104 30 6 63 16 75 24 17 12 21 12 26
-3 4 -9 4 -19 0 -22z m-3917 2 c3 -5 -10 -12 -30 -16 -23 -4 -51 -22 -80 -50
-31 -32 -44 -39 -44 -27 0 24 34 73 62 88 27 15 84 18 92 5z m4516 -35 c0 -12
-5 -7 -19 24 -11 24 -11 24 3 6 9 -11 16 -24 16 -30z m-4481 1 c-2 -2 -25 -15
-50 -30 -25 -14 -64 -44 -86 -66 -46 -46 -53 -49 -53 -22 0 31 166 149 184
131 5 -5 8 -11 5 -13z m4441 -27 c0 -5 -21 -10 -47 -10 -27 0 -88 -9 -138 -19
-52 -11 -94 -15 -99 -10 -16 14 -5 18 104 32 130 18 180 20 180 7z m91 -80
c42 -104 89 -284 78 -301 -6 -10 -9 -8 -9 10 0 32 -54 217 -86 294 -39 93 -39
94 -25 81 7 -6 25 -44 42 -84z m-1599 -8 c6 -6 -6 -19 -36 -36 -25 -14 -64
-49 -87 -76 -23 -28 -48 -50 -56 -50 -32 0 4 108 52 156 23 23 33 26 72 21 24
-2 49 -9 55 -15z m1006 -19 c-3 -18 -122 -62 -134 -50 -11 10 -2 16 63 43 70
28 75 29 71 7z m-306 -63 c57 -15 94 -49 101 -93 7 -48 -10 -56 -22 -10 -17
64 -47 84 -141 94 -88 10 -172 1 -233 -25 -21 -8 -37 -11 -37 -6 0 20 33 39
78 45 26 4 52 8 57 11 17 7 148 -4 197 -16z m-9 -51 c22 -10 44 -38 35 -44 -2
-1 -41 2 -88 6 -47 4 -120 4 -162 1 -54 -3 -78 -2 -78 6 0 42 218 65 293 31z
m-3108 -119 c384 -18 625 -33 625 -41 0 -10 -19 -15 -70 -18 -25 -1 -128 -11
-230 -22 -102 -11 -231 -24 -288 -29 -438 -43 -874 -131 -1241 -250 l-164 -53
-211 28 c-116 16 -217 28 -226 28 -8 -1 -114 5 -235 13 -121 8 -260 14 -309
14 -49 0 -87 2 -85 4 9 9 312 100 458 137 265 68 663 127 1111 164 107 9 233
20 280 24 122 12 354 12 585 1z m4655 -49 c36 -6 123 -17 193 -26 227 -27 223
-55 -8 -55 -218 0 -251 5 -281 46 -28 36 -24 59 10 50 11 -2 50 -9 86 -15z
m-2206 -188 c3 -4 -15 -13 -41 -20 -94 -27 -642 -162 -898 -223 -428 -101
-804 -211 -1128 -329 -76 -28 -143 -51 -148 -51 -19 0 -8 16 19 27 146 59 213
87 247 103 58 26 454 154 637 206 246 69 501 130 908 214 420 87 394 82 404
73z m71 -112 l35 -70 -48 -15 c-48 -16 -139 -34 -697 -136 -371 -68 -520 -99
-808 -169 -272 -66 -287 -65 -57 6 275 84 706 179 1150 253 176 30 267 48 354
71 l39 10 -6 60 c-3 32 -3 59 -1 59 2 0 19 -31 39 -69z m-5037 54 c-3 -3 -86
-35 -184 -71 -127 -47 -196 -67 -239 -69 -33 -2 -106 -18 -162 -34 -110 -33
-133 -37 -133 -21 0 6 1 10 3 10 1 0 39 15 82 33 44 18 107 39 140 46 33 7 85
20 115 29 47 13 347 78 374 81 5 1 7 -1 4 -4z m7732 -162 c9 -51 5 -112 -8
-143 -4 -8 -9 37 -13 100 -3 63 -9 126 -13 140 -4 15 0 12 10 -10 9 -19 20
-58 24 -87z m-6843 12 c150 -18 361 -57 433 -80 l45 -15 -40 6 c-130 20 -168
24 -240 24 -65 0 -504 66 -565 85 -31 9 234 -5 367 -20z m-1917 -168 c-53
-100 -104 -238 -115 -311 -6 -37 -12 -46 -35 -55 -36 -12 -40 -7 -40 48 0 96
67 280 123 340 43 46 111 94 115 83 2 -6 -20 -52 -48 -105z m1375 93 c44 -4
152 -15 240 -24 305 -31 549 -78 734 -141 141 -48 176 -99 147 -214 -19 -76
-134 -321 -151 -321 -6 0 -20 6 -30 14 -19 14 -18 18 33 123 65 136 82 185 82
238 0 75 -13 81 -365 174 -224 59 -595 101 -960 108 -412 8 -454 -7 -551 -204
-80 -164 -119 -383 -78 -442 23 -33 57 -45 276 -96 354 -84 730 -160 963 -195
127 -18 135 -21 135 -35 0 -11 -13 -15 -47 -15 -114 0 -827 130 -1103 201
-211 55 -222 59 -267 104 -41 40 -43 45 -43 103 0 120 71 334 154 461 68 105
143 141 336 160 114 11 396 12 495 1z m-1002 -85 c38 -19 57 -34 57 -47 0 -30
-132 -349 -146 -355 -18 -7 -100 41 -146 85 -28 27 -41 33 -49 25 -20 -20 -2
-40 73 -84 80 -47 108 -68 108 -81 0 -4 -5 -8 -12 -8 -20 0 -239 132 -245 147
-15 40 50 170 150 302 l41 53 56 -4 c36 -3 78 -15 113 -33z m7359 -119 c64
-48 62 -218 -3 -365 -54 -123 -182 -170 -231 -85 -13 23 -18 53 -19 120 -1
141 49 269 124 321 36 25 103 30 129 9z m-309 -37 c32 -15 47 -49 47 -109 0
-46 -2 -50 -24 -50 -13 0 -31 -3 -40 -6 -11 -4 -16 0 -16 13 0 25 -19 43 -44
43 -27 0 -66 -39 -66 -67 0 -25 16 -31 87 -31 71 -1 83 -13 83 -86 0 -107 -38
-179 -114 -215 -90 -44 -156 -17 -170 69 -8 50 -2 59 48 70 26 6 36 5 36 -5 0
-21 34 -43 59 -39 37 6 62 34 59 63 -3 25 -7 26 -75 31 -40 3 -77 10 -84 17
-18 18 -22 93 -10 155 24 114 136 187 224 147z m-340 -43 c18 -7 40 -22 50
-33 21 -24 45 -139 31 -152 -5 -5 -28 -11 -51 -15 -38 -5 -43 -4 -43 13 0 27
-27 51 -57 51 -42 0 -79 -50 -93 -125 -19 -101 3 -165 57 -165 28 0 70 38 78
73 5 20 15 26 47 31 22 4 42 5 44 3 8 -8 -27 -113 -50 -148 -36 -53 -98 -91
-152 -92 -93 -1 -129 58 -128 213 0 90 4 114 26 168 44 107 92 160 164 182 40
12 41 12 77 -4z m-304 -71 c12 -12 16 -36 16 -95 -1 -74 -3 -82 -33 -119 l-31
-39 21 -14 c40 -27 40 -163 0 -217 -10 -14 -29 -33 -43 -43 -24 -18 -278 -83
-287 -73 -7 7 19 547 28 570 6 17 24 22 126 37 131 18 180 17 203 -7z m-5548
-35 c25 -17 27 -17 43 -2 16 16 18 16 27 0 6 -10 18 -18 28 -18 10 0 26 -9 35
-19 22 -25 13 -45 -14 -31 -31 17 -66 11 -93 -14 -14 -13 -28 -21 -32 -18 -3
3 -26 9 -51 12 l-46 5 27 39 c21 31 24 41 13 47 -22 15 -42 5 -58 -29 -16 -33
-30 -34 -30 -2 0 35 57 63 105 53 11 -3 32 -13 46 -23z m-238 -10 c16 -1 6
-28 -13 -33 -13 -3 -30 4 -49 23 l-30 27 42 -8 c23 -4 45 -8 50 -9z m577 11
c0 -6 -4 -12 -9 -15 -13 -8 -42 4 -35 15 7 12 44 12 44 0z m127 -47 c15 -24
21 -26 71 -22 35 3 48 2 38 -4 -23 -13 -13 -24 46 -54 28 -14 53 -34 55 -45 3
-11 17 -26 32 -34 24 -13 25 -14 4 -15 -13 0 -30 12 -43 30 -29 40 -86 56
-128 34 -38 -19 -48 -32 -33 -47 24 -24 9 -25 -25 -2 -24 16 -51 25 -75 25
-40 0 -45 5 -30 29 8 12 14 13 36 3 33 -15 82 -15 120 2 l30 12 -28 27 c-16
14 -41 28 -55 32 -15 3 -32 17 -39 30 -15 33 2 32 24 -1z m1398 -4 c127 -6
277 -15 335 -21 144 -16 199 -14 315 6 69 12 155 18 280 19 198 0 255 -10 281
-49 16 -24 53 -280 54 -367 0 -55 20 -47 -190 -82 -478 -80 -728 -104 -758
-74 -7 7 -79 15 -203 20 -106 4 -292 17 -413 29 -122 11 -256 23 -299 26 -93
7 -93 -2 0 163 101 177 210 320 262 342 9 4 36 5 61 2 25 -2 149 -9 275 -14z
m-1202 3 c-7 -2 -21 -2 -30 0 -10 3 -4 5 12 5 17 0 24 -2 18 -5z m101 -35 c14
-22 2 -34 -44 -43 -35 -7 -35 -7 -12 10 16 12 22 24 19 37 -7 24 21 21 37 -4z
m-1228 -3 c18 -14 18 -14 -7 -15 -15 0 -29 7 -33 15 -7 19 14 19 40 0z m860
-10 c-22 -17 -82 -20 -91 -6 -3 6 14 12 37 14 24 2 50 4 58 5 11 1 10 -3 -4
-13z m-1554 -75 c16 -17 61 -48 98 -71 70 -41 74 -46 84 -109 5 -26 18 -45 54
-74 73 -60 158 -93 391 -153 119 -30 218 -56 220 -59 11 -10 -95 -2 -204 16
-209 36 -283 60 -480 156 -163 79 -230 128 -243 176 -12 47 -36 57 -66 29 -47
-45 -45 -60 20 -119 54 -49 57 -53 29 -47 -42 9 -134 71 -147 100 -9 19 -6 33
13 72 13 27 35 53 49 59 141 65 141 65 182 24z m8178 -69 c14 -26 13 -78 -2
-87 -7 -5 -3 -10 12 -16 22 -8 23 -11 16 -94 -3 -48 -11 -106 -17 -130 -10
-37 -15 -44 -36 -44 -23 0 -24 2 -18 40 8 48 -3 51 -28 8 -15 -25 -20 -29 -28
-17 -5 7 -9 24 -9 36 0 12 -4 25 -10 28 -6 4 -10 -13 -11 -42 -1 -64 -17 -28
-18 40 -1 41 2 50 19 54 11 3 20 12 20 20 0 10 -6 12 -20 8 -17 -5 -20 -2 -20
23 0 39 26 121 49 157 l20 29 9 -23 8 -23 12 26 c14 31 37 34 52 7z m-2969
-39 c24 -12 55 -31 69 -42 20 -15 4 -13 -82 15 -59 19 -115 35 -123 35 -9 0
-13 5 -9 11 10 17 94 6 145 -19z m-5286 -264 c10 -10 -1 -9 -62 8 -21 6 -23 3
-23 -32 1 -87 16 -127 63 -170 36 -33 41 -40 24 -40 -14 1 -23 -7 -27 -24 -5
-22 -8 -19 -24 25 -11 28 -35 82 -54 120 -19 39 -45 100 -57 136 l-23 67 86
-40 c48 -22 92 -44 97 -50z m2550 -178 c183 -35 476 -80 518 -80 19 0 26 -4
21 -11 -10 -18 -243 -4 -459 26 -99 13 -217 30 -263 36 l-84 11 29 30 c21 22
34 28 53 23 14 -3 97 -19 185 -35z m1925 -108 c-16 -50 -46 -157 -65 -239 -44
-182 -43 -179 -56 -166 -8 8 -6 43 6 120 31 203 83 374 118 390 32 15 32 -1
-3 -105z m-3446 -166 c195 -41 359 -77 364 -80 11 -6 25 -266 16 -300 -3 -14
-12 -27 -19 -30 -7 -2 -172 31 -367 76 -277 63 -357 84 -370 100 -15 17 -18
40 -18 145 0 116 8 163 30 163 5 0 169 -33 364 -74z m3021 -25 c-17 -17 -219
-69 -347 -90 -335 -55 -816 -73 -1058 -38 -150 21 -367 64 -395 77 -16 8 -15
9 10 5 75 -12 315 -35 475 -46 181 -12 485 -7 720 12 139 11 432 52 525 73 77
18 81 18 70 7z m1063 -6 c12 -11 6 -94 -8 -120 -24 -45 -100 -59 -100 -18 0
10 -6 28 -14 39 -8 11 -17 36 -21 56 -7 35 -6 37 26 47 35 10 105 8 117 -4z
m84 -47 c28 -24 48 -62 48 -95 0 -28 -6 -35 -40 -53 -43 -22 -55 -46 -17 -35
12 4 35 16 50 27 16 11 31 17 35 14 8 -8 6 -186 -2 -193 -3 -4 -25 2 -48 13
-32 14 -42 16 -46 6 -10 -30 -56 -72 -90 -83 -28 -8 -46 -7 -77 3 -37 13 -44
12 -93 -10 -63 -28 -74 -23 -91 44 -14 53 -11 60 28 67 29 6 70 51 57 64 -3 3
-17 1 -31 -5 -34 -16 -62 -15 -68 1 -6 17 8 94 24 133 30 67 59 104 83 104 21
0 27 -9 46 -66 12 -36 29 -68 37 -71 8 -3 32 3 54 13 32 14 45 15 59 6 17 -10
20 -6 29 39 6 27 11 59 11 69 0 23 19 26 42 8z m-3014 -768 c210 -44 395 -81
410 -81 15 -1 20 -3 10 -6 -23 -6 -349 34 -379 46 -13 6 -123 36 -244 67 -121
31 -222 58 -225 61 -3 3 6 3 20 0 14 -3 197 -42 408 -87z"/>
<path d="M5477 10376 c-9 -13 -24 -54 -33 -90 -36 -143 21 -302 156 -438 43
-43 82 -78 89 -78 6 0 11 -4 11 -8 0 -5 28 -22 63 -39 208 -103 363 -136 632
-137 207 -1 279 10 504 74 89 26 251 102 302 142 20 15 40 28 44 28 4 0 37 31
74 69 117 121 166 266 109 318 -45 41 -69 47 -189 47 -107 -1 -121 -3 -168
-27 -28 -15 -74 -45 -103 -67 -76 -59 -202 -118 -286 -135 -108 -22 -307 -20
-410 5 -178 43 -265 104 -404 285 l-54 70 -161 3 c-160 2 -160 2 -176 -22z"/>
<path d="M3187 10353 c-70 -73 -193 -246 -247 -348 -6 -11 -19 -33 -29 -50
-51 -79 -91 -182 -91 -234 0 -76 60 -100 251 -101 167 0 214 13 254 70 15 21
34 58 42 82 8 24 18 47 22 53 4 5 22 57 40 115 65 214 77 238 160 340 34 41
61 80 61 87 0 7 5 13 10 13 6 0 10 5 10 10 0 6 -80 10 -219 10 l-218 0 -46
-47z"/>
<path d="M4279 10383 c-3 -57 -3 -75 4 -143 10 -102 60 -339 93 -440 55 -170
80 -183 349 -183 313 0 361 30 306 194 -29 87 -163 349 -183 357 -4 2 -8 8 -8
14 0 15 -84 137 -124 181 l-35 37 -200 0 c-184 0 -201 -1 -202 -17z"/>
<path d="M8473 10978 c4 -24 9 -100 13 -170 l7 -128 342 0 c276 0 351 3 392
15 151 45 149 214 -2 290 l-60 30 -349 3 -348 3 5 -43z"/>
<path d="M8018 10373 c-43 -74 -82 -316 -82 -518 -1 -173 6 -193 83 -220 69
-23 342 -21 397 4 83 38 95 143 44 391 -37 180 -38 232 -5 304 14 30 25 57 25
60 0 3 -100 6 -223 6 l-223 0 -16 -27z"/>
<path d="M9193 10375 c7 -14 18 -25 25 -25 6 0 12 -3 12 -7 0 -5 14 -24 31
-43 45 -50 84 -115 184 -305 17 -33 43 -79 58 -102 15 -24 27 -47 27 -53 0 -5
4 -10 9 -10 5 0 14 -13 21 -30 7 -16 16 -30 21 -30 5 0 9 -6 9 -13 0 -23 83
-105 122 -121 28 -12 74 -16 181 -16 194 0 277 26 277 86 0 61 -114 224 -272
385 -94 97 -214 199 -235 199 -4 0 -36 25 -70 55 l-61 55 -175 0 -175 0 11
-25z"/>
<path d="M10941 10873 c27 -81 54 -165 60 -186 l10 -38 327 3 c313 3 329 4
368 25 65 35 80 92 45 170 -27 58 -93 118 -159 145 -54 22 -71 23 -379 26
l-322 3 50 -148z"/>
<path d="M10604 10364 c-11 -59 3 -291 25 -409 45 -243 59 -276 131 -312 40
-21 59 -23 190 -23 162 0 208 9 246 47 25 24 26 31 21 87 -3 34 -22 108 -43
166 -69 199 -76 239 -49 291 18 34 76 73 125 83 19 4 195 11 390 14 315 6 358
9 380 25 13 9 31 17 40 17 14 0 50 33 50 45 0 3 -337 5 -750 5 l-749 0 -7 -36z"/>
<path d="M10690 8834 c0 -12 55 -64 67 -64 21 0 15 19 -13 45 -25 23 -54 33
-54 19z"/>
<path d="M10952 8828 c5 -15 48 -24 48 -10 0 10 -23 22 -42 22 -5 0 -8 -6 -6
-12z"/>
<path d="M7040 8440 c0 -73 2 -80 20 -80 18 0 20 7 20 80 0 73 -2 80 -20 80
-18 0 -20 -7 -20 -80z"/>
<path d="M10724 7305 c-9 -14 -14 -29 -10 -32 8 -9 57 38 50 48 -9 15 -23 10
-40 -16z"/>
<path d="M11097 7144 c-4 -4 -7 -17 -7 -28 1 -19 1 -20 11 -3 11 19 8 43 -4
31z"/>
<path d="M9936 7115 c-5 -18 -13 -25 -31 -25 -17 0 -25 -6 -25 -17 0 -10 -7
-26 -15 -37 -12 -16 -12 -20 1 -33 8 -9 14 -34 14 -63 0 -79 -1 -80 -94 -80
-55 0 -91 -5 -111 -16 -16 -9 -41 -20 -55 -23 -14 -4 69 -11 185 -16 279 -11
397 -13 412 -8 8 3 -17 63 -72 174 l-85 169 -59 0 c-54 0 -59 -2 -65 -25z"/>
<path d="M8518 6493 c7 -3 16 -2 19 1 4 3 -2 6 -13 5 -11 0 -14 -3 -6 -6z"/>
<path d="M3465 7611 c-3 -10 -1 -29 4 -42 9 -21 10 -19 10 19 1 45 -4 54 -14
23z"/>
<path d="M11835 6957 c-4 -10 -5 -21 -1 -24 10 -10 18 4 13 24 -4 17 -4 17
-12 0z"/>
<path d="M3426 5164 c-10 -27 -7 -31 24 -38 17 -3 52 -20 77 -37 l46 -32 -6
38 c-9 56 -41 85 -93 85 -29 0 -44 -5 -48 -16z"/>
<path d="M10785 4926 c-37 -37 -59 -146 -40 -204 4 -16 14 -22 36 -22 38 0 74
35 88 86 15 52 14 137 -1 152 -19 19 -57 14 -83 -12z"/>
<path d="M9770 4781 c-34 -6 -35 -8 -38 -54 l-3 -49 43 7 c74 12 93 26 93 65
0 32 -3 35 -30 36 -16 1 -46 -1 -65 -5z"/>
<path d="M9762 4580 c-43 -10 -43 -11 -50 -66 l-5 -47 48 7 c71 11 94 23 105
52 23 58 -8 75 -98 54z"/>
<path d="M7140 4808 c-108 -6 -175 -14 -196 -24 -38 -18 -55 -51 -89 -166 -14
-48 -52 -140 -84 -205 -33 -65 -57 -121 -53 -125 12 -12 351 21 492 48 74 14
158 30 187 35 29 5 64 14 79 19 l26 10 -7 113 c-12 201 -29 271 -67 286 -43
15 -123 18 -288 9z m256 -66 c49 -32 79 -232 42 -279 -15 -19 -70 -32 -203
-48 -166 -20 -217 -19 -246 4 l-24 19 24 71 c27 80 73 155 113 184 51 38 259
73 294 49z"/>
<path d="M7265 4718 c-73 -11 -138 -40 -159 -70 -9 -13 -30 -58 -47 -101 -42
-110 -41 -111 126 -105 149 6 200 21 211 63 4 14 4 63 2 107 -4 69 -8 84 -28
100 -12 10 -27 17 -34 17 -6 -1 -38 -6 -71 -11z"/>
<path d="M5985 4791 c-47 -29 -148 -140 -198 -216 -50 -78 -113 -202 -106
-209 8 -8 446 -47 646 -58 111 -6 222 -7 246 -4 l45 7 60 117 c65 125 112 252
112 300 0 23 -5 31 -22 35 -60 15 -521 47 -677 47 -57 0 -84 -5 -106 -19z
m485 -66 c208 -7 230 -11 230 -34 0 -19 -75 -213 -103 -268 -28 -53 -37 -56
-170 -54 -67 1 -203 8 -301 15 -166 13 -181 15 -198 36 -22 27 -20 36 30 143
39 85 99 149 156 167 17 5 67 7 111 5 44 -3 154 -7 245 -10z"/>
<path d="M3887 3883 c-4 -3 -7 -48 -7 -99 l0 -93 39 -11 c21 -5 165 -39 320
-74 240 -54 281 -61 282 -47 4 65 0 184 -7 191 -10 10 -186 50 -374 85 -73 14
-155 32 -183 40 -58 17 -61 17 -70 8z"/>
</g>
</svg>
