<svg xmlns="http://www.w3.org/2000/svg" width="512" height="448" viewBox="0 0 512 448">
  <g id="right-to-bracket-duotone" transform="translate(0 -32)">
    <path id="Path_3" data-name="Path 3" d="M320,64a31.966,31.966,0,0,0,32,32h64a31.966,31.966,0,0,1,32,32V384a31.966,31.966,0,0,1-32,32H352a32,32,0,0,0,0,64h64a96.025,96.025,0,0,0,96-96V128a96.025,96.025,0,0,0-96-96H352A31.966,31.966,0,0,0,320,64Z" fill="#fff" opacity="0.4"/>
    <path id="Path_4" data-name="Path 4" d="M340.7,228.7,217.9,105.9a33.941,33.941,0,0,0-57.9,24V192H32A31.966,31.966,0,0,0,0,224v64a31.966,31.966,0,0,0,32,32H160v62.1a33.941,33.941,0,0,0,57.9,24L340.7,283.3a38.627,38.627,0,0,0,0-54.6Z" fill="#fff"/>
  </g>
</svg>
