<svg xmlns="http://www.w3.org/2000/svg" width="638.82" height="512" viewBox="0 0 638.82 512">
  <g id="scale-balanced-duotone" transform="translate(-0.04)">
    <path id="Path_5" data-name="Path 5" d="M384,32H512a32,32,0,0,1,0,64H398.4A79.885,79.885,0,0,1,352,153.3V448H512a32,32,0,0,1,0,64H128a32,32,0,0,1,0-64H288V153.3A80.26,80.26,0,0,1,241.6,96H128a32,32,0,0,1,0-64H256a80,80,0,0,1,128,0Z" fill="#fff" opacity="0.4"/>
    <path id="Path_6" data-name="Path 6" d="M126.8,195.8,199.3,320H54.4ZM.9,337.1C11.7,382,64,416,126.8,416s115.2-34,126-78.9c2.6-11-1-22.3-6.7-32.1L150.9,141.8a27.944,27.944,0,0,0-48.2,0L7.6,305.1c-5.7,9.8-9.3,21.1-6.7,32.1ZM512,195.8,584.4,320H439.6ZM386,337.1C396.8,382,449.1,416,512,416s115.2-34,126-78.9c2.6-11-1-22.3-6.7-32.1L536.1,141.8a27.944,27.944,0,0,0-48.2,0L392.7,305.1c-5.7,9.8-9.3,21.1-6.7,32.1Z" fill="#fff"/>
  </g>
</svg>
