<svg xmlns="http://www.w3.org/2000/svg" width="448" height="512.025" viewBox="0 0 448 512.025">
  <g id="user-police-tie-duotone" transform="translate(0 0.025)">
    <path id="Path_1" data-name="Path 1" d="M101.7,154.2a128,128,0,1,0,244.6,0A351.663,351.663,0,0,1,224,176,351.664,351.664,0,0,1,101.7,154.2Z" fill="#fff" opacity="0.4"/>
    <path id="Path_2" data-name="Path 2" d="M230.1.8l152,40a23.949,23.949,0,0,1,9.5,41.4l-23.8,20.4c.1,1,.1,2,.1,3.1v21.2c0,10.7-5.3,20.8-15.1,25.2-24.1,10.8-68.6,24-128.9,24S119.1,162.9,95,152.1c-9.7-4.4-15-14.5-15-25.2V105.7c0-1,0-2.1.1-3.1L56.4,82.2a23.949,23.949,0,0,1,9.5-41.4l152-40a22.964,22.964,0,0,1,12.2,0ZM227,48.6a7.552,7.552,0,0,0-5.9,0L189,61.4a8.05,8.05,0,0,0-5,7.4c0,17.2,7,46.1,36.9,58.6a8.308,8.308,0,0,0,6.2,0C257,114.9,264,86,264,68.8a7.948,7.948,0,0,0-5-7.4ZM208,416l-20.4-40.8A16.042,16.042,0,0,1,201.9,352h44.2a16.02,16.02,0,0,1,14.3,23.2L240,416l12.2,48.9L315,360.3a14.951,14.951,0,0,1,14.4-7.4A134.471,134.471,0,0,1,448,486.4,25.649,25.649,0,0,1,422.4,512H25.6A25.649,25.649,0,0,1,0,486.4,134.471,134.471,0,0,1,118.6,352.9a14.951,14.951,0,0,1,14.4,7.4l62.8,104.6Zm144-8a7.955,7.955,0,0,0-7.6,5.5L339,430.2H321.6a7.864,7.864,0,0,0-7.6,5.5,8.226,8.226,0,0,0,2.9,9L331,454.8l-5.4,16.6a8.07,8.07,0,0,0,2.9,9,7.952,7.952,0,0,0,9.4,0L352,470.1l14.1,10.3a7.952,7.952,0,0,0,9.4,0,8.07,8.07,0,0,0,2.9-9L373,454.8l14.1-10.2a8.015,8.015,0,0,0-4.7-14.5H365l-5.4-16.6A7.955,7.955,0,0,0,352,408Z" fill="#fff"/>
  </g>
</svg>
